<svg xmlns="http://www.w3.org/2000/svg" width="500" height="500" viewBox="0 0 500 500" version="1.2" baseProfile="tiny-ps"><title>SecureLayer</title>
	<path d="M 175.198 85.217 C 134.939 108.967, 102 128.710, 102 129.090 C 102 129.471, 111.435 135.335, 122.968 142.123 C 134.500 148.911, 143.612 154.768, 143.218 155.139 C 142.823 155.510, 132.375 161.745, 120 168.993 C 90.790 186.103, 92.640 184.861, 93.975 186.470 C 94.799 187.462, 94.752 187.924, 93.792 188.266 C 93.081 188.519, 92.725 188.950, 93 189.223 C 93.275 189.495, 105.358 196.679, 119.852 205.187 C 134.345 213.694, 146.210 221.046, 146.218 221.524 C 146.226 222.002, 136.182 228.339, 123.897 235.605 C 111.612 242.872, 101.445 249.196, 101.304 249.659 C 101.163 250.121, 112.067 256.965, 125.536 264.866 C 139.005 272.767, 150.203 279.519, 150.419 279.869 C 150.636 280.220, 139.718 287.069, 126.157 295.089 C 112.596 303.108, 101.549 310.077, 101.609 310.574 C 101.669 311.072, 112.774 318.008, 126.288 325.989 C 139.802 333.970, 151.103 340.750, 151.402 341.056 C 151.701 341.362, 140.515 348.337, 126.545 356.556 C 112.575 364.775, 101.450 371.793, 101.822 372.151 C 103.771 374.024, 247.208 458, 248.458 458 C 249.270 458, 282.797 438.595, 322.963 414.879 L 395.992 371.757 371.152 357.129 C 357.490 349.083, 346.265 342.050, 346.209 341.500 C 346.153 340.950, 357.114 333.975, 370.567 326 C 384.021 318.025, 395.042 311.050, 395.058 310.500 C 395.075 309.950, 384.044 302.990, 370.545 295.033 C 357.045 287.077, 346.020 280.327, 346.045 280.033 C 346.070 279.740, 356.487 273.425, 369.195 266 C 381.903 258.575, 393.190 251.796, 394.279 250.936 C 396.158 249.452, 394.983 248.622, 371.129 234.576 C 357.308 226.438, 346 219.647, 346 219.486 C 346 219.325, 357.244 212.566, 370.987 204.468 C 394.966 190.337, 395.949 189.638, 395.367 187.122 C 394.574 183.698, 395.139 184.096, 370.910 169.876 C 359.409 163.127, 350 157.291, 350 156.908 C 350 156.525, 360.125 150.256, 372.500 142.978 C 384.875 135.700, 395 129.452, 395 129.093 C 395 128.615, 298.453 71.262, 251.448 43.818 L 248.396 42.036 175.198 85.217 M 177.652 86.788 C 138.794 109.719, 107 128.769, 107 129.122 C 107 129.475, 115.965 135.013, 126.922 141.430 L 146.845 153.096 194.672 124.893 C 220.978 109.382, 243.177 96.511, 244.004 96.293 C 244.831 96.074, 267.781 109.024, 295.004 125.070 C 322.227 141.115, 345.018 154.445, 345.652 154.691 C 346.792 155.134, 389.273 130.587, 389.745 129.213 C 389.931 128.671, 261.814 52.361, 250.540 46.298 C 248.508 45.205, 241.877 48.889, 177.652 86.788 M 151.455 173.455 C 146.726 178.183, 149.218 183.135, 157.546 185.556 C 162.830 187.093, 166 189.160, 166 191.071 C 166 191.582, 165.048 192.952, 163.884 194.116 C 162.178 195.822, 160.973 196.126, 157.669 195.682 C 155.415 195.380, 153.055 194.428, 152.425 193.566 C 150.978 191.588, 149 191.536, 149 193.477 C 149 197.617, 160.463 199.892, 165.312 196.715 C 166.656 195.835, 168.055 193.916, 168.423 192.452 C 169.487 188.213, 166.910 185.466, 159.585 183.028 C 151.968 180.494, 150.222 177.858, 154.086 174.730 C 156.734 172.585, 161.730 172.996, 163.610 175.513 C 165.587 178.160, 168.048 177.115, 166.235 174.400 C 163.548 170.375, 155.075 169.834, 151.455 173.455 M 263.667 171.667 C 263.300 172.033, 263 178.108, 263 185.167 L 263 198 269.500 198 C 274.611 198, 276 197.679, 276 196.500 C 276 195.367, 274.778 195, 271 195 L 266 195 266 183 C 266 172.023, 265.541 169.793, 263.667 171.667 M 173.916 182.784 C 171.428 185.006, 170.800 186.361, 170.800 189.500 C 170.800 197.191, 179.707 200.798, 185.694 195.532 C 188.375 193.173, 188.403 193.062, 186.309 193.032 C 185.104 193.014, 183.840 193.450, 183.500 194 C 182.637 195.396, 176.652 195.252, 175.200 193.800 C 172.333 190.933, 173.880 190, 181.500 190 C 185.625 190, 189 189.571, 189 189.047 C 189 186.636, 186.356 182.718, 183.855 181.425 C 179.814 179.335, 177.408 179.664, 173.916 182.784 M 196.357 180.992 C 190.853 183.213, 189.303 190.877, 193.452 195.354 C 196.720 198.880, 202.675 199.039, 205.826 195.686 C 207.022 194.413, 208 193.063, 208 192.686 C 208 191.424, 205.260 191.982, 204 193.500 C 201.129 196.959, 193.979 194.038, 194.015 189.421 C 194.035 186.897, 194.988 185.569, 197.870 184.050 C 199.906 182.977, 200.639 183.097, 203.079 184.901 C 207.446 188.129, 209.456 187.501, 206.637 183.789 C 205.447 182.223, 200.824 179.912, 199.185 180.063 C 198.808 180.098, 197.536 180.516, 196.357 180.992 M 235.616 181.527 C 234.727 182.416, 234 182.661, 234 182.071 C 234 181.482, 233.325 181, 232.500 181 C 231.284 181, 231 182.611, 231 189.500 C 231 196.389, 231.284 198, 232.500 198 C 233.636 198, 234 196.770, 234 192.934 C 234 186.896, 235.332 184, 238.109 184 C 239.474 184, 240.040 183.449, 239.823 182.333 C 239.368 179.983, 237.515 179.628, 235.616 181.527 M 244.916 182.784 C 242.428 185.006, 241.800 186.361, 241.800 189.500 C 241.800 197.191, 250.707 200.798, 256.694 195.532 C 259.375 193.173, 259.403 193.062, 257.309 193.032 C 256.104 193.014, 254.840 193.450, 254.500 194 C 253.637 195.396, 247.652 195.252, 246.200 193.800 C 243.333 190.933, 244.880 190, 252.500 190 C 256.625 190, 260 189.571, 260 189.047 C 260 186.636, 257.356 182.718, 254.855 181.425 C 250.814 179.335, 248.408 179.664, 244.916 182.784 M 281.819 181.536 C 277.204 184.042, 276.293 191.554, 280.111 195.618 C 282.580 198.247, 288.679 198.921, 290.800 196.800 C 291.733 195.867, 292 195.867, 292 196.800 C 292 197.460, 292.675 198, 293.500 198 C 294.716 198, 295 196.389, 295 189.500 C 295 182.611, 294.716 181, 293.500 181 C 292.675 181, 292 181.476, 292 182.057 C 292 182.649, 291.023 182.429, 289.777 181.557 C 287.056 179.651, 285.299 179.646, 281.819 181.536 M 320.357 180.954 C 314.138 183.573, 313.327 192.429, 318.913 196.718 C 321.540 198.735, 327.349 198.255, 329.978 195.806 C 332.548 193.412, 331.351 192.206, 328.121 193.935 C 325.117 195.543, 321.506 195.216, 319.653 193.169 C 317.289 190.557, 318.434 190, 326.167 190 C 332.268 190, 333 189.792, 333 188.056 C 333 183.146, 325.352 178.850, 320.357 180.954 M 342.139 180.894 C 341.391 181.367, 339.928 181.533, 338.889 181.261 C 337.145 180.805, 337 181.427, 337 189.383 C 337 196.376, 337.283 198, 338.500 198 C 339.661 198, 340 196.689, 340 192.200 C 340 186.146, 341.118 184, 344.273 184 C 345.485 184, 346.032 183.411, 345.823 182.333 C 345.430 180.307, 343.969 179.736, 342.139 180.894 M 212 187.845 C 212 193.206, 212.396 195.049, 213.829 196.345 C 215.960 198.274, 221.067 198.533, 222.800 196.800 C 223.733 195.867, 224 195.867, 224 196.800 C 224 197.460, 224.675 198, 225.500 198 C 226.716 198, 227 196.389, 227 189.500 C 227 182.611, 226.716 181, 225.500 181 C 224.391 181, 224 182.161, 224 185.453 C 224 192.248, 222.304 195.165, 218.567 194.800 C 215.511 194.501, 215.499 194.477, 215.204 187.750 C 214.981 182.646, 214.554 181, 213.454 181 C 212.324 181, 212 182.523, 212 187.845 M 301.532 188.063 L 305.089 195.126 302.544 200.684 C 299.628 207.053, 299.475 208, 301.361 208 C 302.449 208, 314 183.835, 314 181.560 C 314 181.252, 313.377 181, 312.616 181 C 311.855 181, 310.204 183.534, 308.947 186.630 L 306.662 192.261 303.815 186.630 C 302.249 183.534, 300.294 181, 299.471 181 C 298.337 181, 298.836 182.710, 301.532 188.063 M 175.655 184.829 C 173.118 187.632, 173.565 188, 179.500 188 C 185.350 188, 186.106 187.311, 183.171 184.655 C 180.772 182.484, 177.713 182.555, 175.655 184.829 M 246.655 184.829 C 244.118 187.632, 244.565 188, 250.500 188 C 256.350 188, 257.106 187.311, 254.171 184.655 C 251.772 182.484, 248.713 182.555, 246.655 184.829 M 282.392 185.517 C 280.552 187.357, 280.056 188.633, 280.545 190.267 C 281.554 193.631, 283.515 195.250, 286.583 195.250 C 291.834 195.250, 294.120 187.598, 289.777 184.557 C 286.716 182.412, 285.315 182.594, 282.392 185.517 M 319.750 185.250 L 317.500 187.500 320.750 187.813 C 322.538 187.986, 325.462 187.986, 327.250 187.813 L 330.500 187.500 328.250 185.250 C 327.012 184.012, 325.100 183, 324 183 C 322.900 183, 320.988 184.012, 319.750 185.250 M 331 227.890 C 324.675 231.645, 313.740 238.100, 306.700 242.234 L 293.900 249.751 298.450 252.418 C 302.786 254.959, 304.309 257, 301.868 257 C 300.535 257, 293.781 253.014, 292.872 251.691 C 292.527 251.189, 282.234 256.677, 269.999 263.889 C 254.591 272.970, 246.817 277, 244.706 277 C 242.626 277, 235.756 273.524, 223.079 266.056 C 212.861 260.037, 203.709 254.813, 202.742 254.446 C 201.739 254.066, 199.880 254.504, 198.411 255.466 C 196.994 256.395, 195.089 256.859, 194.169 256.499 C 192.784 255.957, 192.967 255.599, 195.250 254.391 C 196.763 253.591, 198 252.563, 198 252.106 C 198 250.933, 150.954 223.432, 149.608 223.818 C 148.999 223.993, 138.931 229.783, 127.236 236.686 L 105.972 249.237 130.369 263.614 L 154.765 277.990 159.383 275.410 C 163.129 273.316, 164 273.123, 164 274.389 C 164 275.247, 162.598 276.673, 160.885 277.559 C 159.172 278.445, 158.159 279.539, 158.635 279.990 C 159.111 280.441, 179.497 292.608, 203.938 307.028 C 237.476 326.814, 248.760 333.018, 249.938 332.319 C 250.797 331.809, 271.219 319.759, 295.321 305.542 L 339.142 279.692 335.821 277.661 C 333.994 276.544, 332.342 275.518, 332.150 275.381 C 331.957 275.245, 332.109 274.633, 332.486 274.022 C 332.951 273.270, 334.589 273.741, 337.561 275.483 L 341.948 278.054 365.974 263.912 C 379.188 256.134, 389.980 249.484, 389.957 249.135 C 389.918 248.577, 345.058 221.844, 343.216 221.281 C 342.822 221.161, 337.325 224.135, 331 227.890 M 312.731 262.244 C 312.490 262.935, 314.250 264.738, 316.643 266.250 C 321.233 269.151, 323 269.641, 323 268.013 C 323 267.182, 320.158 265.102, 314.335 261.673 C 313.695 261.296, 312.973 261.553, 312.731 262.244 M 177.760 264.294 C 174.518 266.206, 172.679 269, 174.662 269 C 176.066 269, 184 263.866, 184 262.958 C 184 261.439, 181.803 261.910, 177.760 264.294 M 130.741 295.371 C 117.674 303.113, 107.099 309.780, 107.241 310.187 C 107.602 311.220, 248.182 394.119, 248.994 393.778 C 251.351 392.787, 389.999 310.412, 389.993 310.006 C 389.989 309.728, 379.188 303.114, 365.991 295.310 L 341.995 281.120 296.276 308.176 C 271.131 323.057, 249.991 335.450, 249.299 335.716 C 248.606 335.981, 227.218 323.939, 201.770 308.955 C 176.321 293.971, 155.275 281.618, 155 281.504 C 154.725 281.390, 143.808 287.630, 130.741 295.371 M 130.241 357.414 L 105.983 371.760 176.470 413.373 C 215.238 436.260, 247.392 455.102, 247.923 455.243 C 249.015 455.534, 389.895 372.844, 389.959 371.875 C 389.981 371.531, 379.207 364.870, 366.016 357.072 L 342.033 342.894 296.766 369.617 C 271.870 384.314, 250.818 396.755, 249.985 397.263 C 248.856 397.952, 236.563 391.164, 201.686 370.594 C 175.954 355.417, 154.811 343.015, 154.700 343.034 C 154.590 343.053, 143.584 349.524, 130.241 357.414" stroke="none" fill="#000000" fill-rule="evenodd"/>
</svg>